<svg width="210" height="210" viewBox="0 0 210 210" fill="none" xmlns="http://www.w3.org/2000/svg">
<g id="logo_ej_1">
<g id="Group 2">
<circle id="Ellipse 6" cx="104" cy="105" r="100" fill="#F5EFFF"/>
<g id="Ellipse 4" opacity="0.5" filter="url(#filter0_f_65_2)">
<ellipse cx="105.187" cy="104.677" rx="33.507" ry="99.4261" transform="rotate(42.8541 105.187 104.677)" fill="#CDC1FF"/>
</g>
<g id="Ellipse 5" opacity="0.7" filter="url(#filter1_f_65_2)">
<path d="M118.827 129.135C95.2125 142.392 72.298 151.461 54.3884 155.447C45.4175 157.444 37.846 158.132 32.1294 157.517C26.3355 156.893 23.0324 155.012 21.6145 152.486C20.1965 149.96 20.3107 146.161 22.7954 140.89C25.247 135.689 29.7777 129.584 36.1539 122.965C48.8834 109.751 68.5582 94.9116 92.1728 81.6549C115.788 68.3982 138.702 59.3294 156.612 55.3432C165.582 53.3465 173.154 52.6579 178.871 53.2733C184.664 53.8969 187.968 55.778 189.385 58.3039C190.803 60.8297 190.689 64.6291 188.205 69.9002C185.753 75.101 181.222 81.2063 174.846 87.8251C162.117 101.039 142.442 115.879 118.827 129.135Z" stroke="#A594F9" stroke-width="5"/>
</g>
<circle id="Ellipse 3" cx="104.5" cy="105.5" r="79.5" stroke="#393163" stroke-width="10"/>
<path id="ej" d="M64.37 105.77C60.6833 105.77 57.4633 105.117 54.71 103.81C51.9567 102.457 49.81 100.567 48.27 98.14C46.73 95.7133 45.96 92.89 45.96 89.67C45.96 85.7033 46.8233 82.2267 48.55 79.24C50.3233 76.2533 52.7033 73.9433 55.69 72.31C58.7233 70.63 62.0833 69.79 65.77 69.79C68.7567 69.79 71.2767 70.28 73.33 71.26C75.43 72.24 77.0867 73.57 78.3 75.25C79.56 76.93 80.4 78.8433 80.82 80.99C81.24 83.09 81.31 85.26 81.03 87.5C80.89 88.6667 80.5633 89.4367 80.05 89.81C79.5367 90.1367 78.86 90.3 78.02 90.3H56.11L56.95 84.42H72.49L71.37 85.33C71.6033 83.8833 71.5333 82.6 71.16 81.48C70.8333 80.36 70.2033 79.4967 69.27 78.89C68.3833 78.2367 67.17 77.91 65.63 77.91C64.1367 77.91 62.8767 78.2367 61.85 78.89C60.8233 79.5433 59.9833 80.43 59.33 81.55C58.7233 82.67 58.3267 83.93 58.14 85.33L57.65 88.06C57.23 90.8133 57.7433 92.9367 59.19 94.43C60.6367 95.8767 62.83 96.6 65.77 96.6C66.8433 96.6 68.0333 96.4833 69.34 96.25C70.6933 96.0167 71.86 95.6667 72.84 95.2C74.1 94.6867 75.15 94.57 75.99 94.85C76.8767 95.13 77.53 95.6667 77.95 96.46C78.37 97.2067 78.5333 98.0467 78.44 98.98C78.3933 99.9133 78.09 100.823 77.53 101.71C76.97 102.55 76.13 103.203 75.01 103.67C73.3767 104.417 71.6267 104.953 69.76 105.28C67.94 105.607 66.1433 105.77 64.37 105.77ZM81.2881 118.3C80.0281 118.347 79.0248 118.067 78.2781 117.46C77.5315 116.9 77.0415 116.2 76.8081 115.36C76.5281 114.52 76.5048 113.657 76.7381 112.77C76.9248 111.883 77.3681 111.113 78.0681 110.46C78.7215 109.853 79.6081 109.48 80.7281 109.34C82.0815 109.247 83.1548 108.827 83.9481 108.08C84.7415 107.38 85.2548 106.283 85.4881 104.79L90.0381 76.09C90.3648 74.0367 91.1115 72.4967 92.2781 71.47C93.4448 70.4433 95.0548 69.93 97.1081 69.93C99.0681 69.93 100.515 70.56 101.448 71.82C102.381 73.08 102.661 74.8533 102.288 77.14L98.2281 103.11C97.7148 106.517 96.8048 109.317 95.4981 111.51C94.2381 113.75 92.4648 115.43 90.1781 116.55C87.8915 117.67 84.9281 118.253 81.2881 118.3ZM97.9481 64.96C95.8015 64.96 94.2148 64.4467 93.1881 63.42C92.1615 62.3933 91.7648 60.9467 91.9981 59.08C92.3248 57.0733 93.1415 55.5567 94.4481 54.53C95.8015 53.5033 97.6215 52.99 99.9081 52.99C102.055 52.99 103.665 53.5033 104.738 54.53C105.811 55.5567 106.208 57.0033 105.928 58.87C105.601 60.8767 104.761 62.3933 103.408 63.42C102.101 64.4467 100.281 64.96 97.9481 64.96Z" fill="#5B5F96"/>
<path id="1" d="M113.2 157C110.667 157 108.7 156.467 107.3 155.4C105.967 154.267 105.3 152.667 105.3 150.6C105.3 148 106.1 145.933 107.7 144.4C109.3 142.867 111.467 142.1 114.2 142.1H123.1L129.6 101.2L138.6 101.8L123.5 110.4C121.5 111.467 119.7 111.9 118.1 111.7C116.567 111.433 115.3 110.733 114.3 109.6C113.3 108.467 112.667 107.133 112.4 105.6C112.2 104.067 112.467 102.533 113.2 101C113.933 99.4667 115.233 98.1333 117.1 97L132.5 88.3C134.3 87.2333 135.9 86.5333 137.3 86.2C138.7 85.8 140.267 85.6 142 85.6C144.733 85.6 146.7 86.3667 147.9 87.9C149.1 89.4333 149.467 91.6 149 94.4L141.5 142.1H148C150.533 142.1 152.467 142.633 153.8 143.7C155.2 144.767 155.9 146.333 155.9 148.4C155.9 151 155.1 153.1 153.5 154.7C151.967 156.233 149.8 157 147 157H113.2Z" fill="#5B5F96"/>
</g>
</g>
<defs>
<filter id="filter0_f_65_2" x="24.2209" y="19.2893" width="161.931" height="170.776" filterUnits="userSpaceOnUse" color-interpolation-filters="sRGB">
<feFlood flood-opacity="0" result="BackgroundImageFix"/>
<feBlend mode="normal" in="SourceGraphic" in2="BackgroundImageFix" result="shape"/>
<feGaussianBlur stdDeviation="4.5" result="effect1_foregroundBlur_65_2"/>
</filter>
<filter id="filter1_f_65_2" x="14.1993" y="46.5557" width="182.601" height="117.679" filterUnits="userSpaceOnUse" color-interpolation-filters="sRGB">
<feFlood flood-opacity="0" result="BackgroundImageFix"/>
<feBlend mode="normal" in="SourceGraphic" in2="BackgroundImageFix" result="shape"/>
<feGaussianBlur stdDeviation="2" result="effect1_foregroundBlur_65_2"/>
</filter>
</defs>
</svg>
